<svg width="256" height="256" viewBox="0 0 256 208" fill="none" xmlns="http://www.w3.org/2000/svg">
<path fill-rule="evenodd" clip-rule="evenodd" d="M0 32C0 14.3269 14.3269 0 32 0H224C241.673 0 256 14.3269 256 32V176C256 193.673 241.673 208 224 208H32C14.3269 208 0 193.673 0 176V32ZM28.0711 82.5685C24.1658 78.6633 24.1658 72.3316 28.0711 68.4264L63.4264 33.0711C65.461 31.0365 68.1542 30.0619 70.8198 30.1473C73.4854 30.0619 76.1786 31.0365 78.2132 33.0711L113.569 68.4264C117.474 72.3316 117.474 78.6633 113.569 82.5685C109.663 86.4738 103.332 86.4738 99.4264 82.5685L70.8198 53.9619L42.2132 82.5685C38.308 86.4738 31.9763 86.4738 28.0711 82.5685Z" fill="url(#paint0_linear_1_7)"/>
<defs>
<linearGradient id="paint0_linear_1_7" x1="128" y1="0" x2="128" y2="208" gradientUnits="userSpaceOnUse">
<stop stop-color="#BE9BF8"/>
<stop offset="1" stop-color="#585CA7"/>
</linearGradient>
</defs>
</svg>
