<svg xmlns="http://www.w3.org/2000/svg" width="623.65" height="623.63" viewBox="0 0 623.65 623.63" xmlns:xlink="http://www.w3.org/1999/xlink"><path d="m311.82,623.63c-7.11,0-14.19-.24-21.06-.7-7.08-.47-14.19-1.19-21.12-2.14-3.05-.41-5.81-.82-8.44-1.25-7.81-1.27-15.76-2.88-23.63-4.8-2.7-.65-5.33-1.33-7.83-2.03-.88-.23-1.78-.48-2.67-.73-3.8-1.07-7.48-2.18-10.92-3.3-.22-.06-.48-.15-.74-.23-3.1-1-6.34-2.11-9.62-3.3-2.77-1-5.57-2.06-8.56-3.24-9.76-3.85-19.48-8.28-28.89-13.16-49.92-25.92-91.99-64.91-121.69-112.76C16.14,426.77,0,370,0,311.81c0-83.29,32.44-161.6,91.33-220.49C150.22,32.43,228.53,0,311.82,0s161.6,32.43,220.5,91.32c58.9,58.89,91.33,137.2,91.33,220.49,0,48.94-11.02,95.79-32.74,139.24-20.72,41.44-51.05,78.43-87.73,106.96-17.49,13.61-36.43,25.37-56.32,34.93-2.25,1.09-4.66,2.2-7.56,3.51l-.32.14c-.35.16-.69.31-1.04.46-2.18.97-4.4,1.92-6.59,2.82l-.99.42c-.59.25-1.18.49-1.78.72-8.04,3.25-16.29,6.2-24.54,8.73-6.12,1.9-12.53,3.66-19.06,5.23-23.79,5.74-48.41,8.65-73.16,8.65h0Zm0-621.6c-82.76,0-160.56,32.22-219.07,90.74C34.23,151.25,2,229.05,2,311.81c0,57.82,16.04,114.22,46.37,163.11,29.5,47.54,71.31,86.29,120.91,112.04,9.35,4.85,19.01,9.25,28.71,13.08,2.97,1.18,5.75,2.23,8.5,3.22,3.27,1.18,6.48,2.28,9.57,3.28.24.08.47.15.7.22,3.44,1.12,7.09,2.22,10.87,3.29.88.25,1.76.5,2.64.73,2.49.69,5.1,1.37,7.78,2.02,7.82,1.91,15.71,3.51,23.48,4.77,2.61.43,5.35.84,8.38,1.25,6.88.94,13.94,1.66,20.98,2.12,6.82.46,13.86.7,20.92.7,24.59,0,49.05-2.89,72.7-8.59,6.49-1.56,12.86-3.31,18.94-5.19,8.19-2.52,16.4-5.44,24.39-8.68.6-.23,1.17-.47,1.74-.71l1.18-.5c2.11-.87,4.25-1.79,6.37-2.73.36-.15.69-.3,1.02-.45l.32-.14c2.88-1.3,5.27-2.41,7.51-3.49,19.76-9.5,38.59-21.18,55.96-34.71,36.44-28.36,66.58-65.11,87.17-106.28,21.58-43.17,32.53-89.72,32.53-138.35,0-82.76-32.23-160.56-90.75-219.07C472.39,34.22,394.58,2,311.82,2h0s0,.03,0,.03Z" fill="#dddedf"/><path d="m283.5,177.84s-54.77,6.18-58.3,90.99c-2.94,70.67-8.96,110.06,19.79,124.8,10.28,5.27,22.36,5.73,33.34,2.13l117.37-38.59s1.77-127.21-38.87-158.13c-40.64-30.92-73.32-21.2-73.32-21.2h0Z" fill="#2f2e41"/><polygon points="348.2 372.79 288.8 392.32 288.8 306.82 342.69 306.82 348.2 372.79" fill="#f6a6a9"/><path d="m428.22,600.09c-8,3.24-16.16,6.15-24.47,8.71-6.25,1.94-12.59,3.67-19,5.21-23.39,5.64-47.82,8.62-72.93,8.62-7.06,0-14.06-.23-20.99-.7-7.09-.47-14.11-1.18-21.05-2.13-2.82-.38-5.62-.79-8.41-1.25-7.95-1.29-15.81-2.9-23.55-4.79-2.61-.63-5.21-1.3-7.8-2.02-.89-.23-1.78-.48-2.66-.73-3.65-1.03-7.28-2.12-10.88-3.29-.24-.07-.49-.15-.73-.23-3.22-1.04-6.42-2.14-9.6-3.29-2.86-1.03-5.7-2.11-8.53-3.23l61.71-203.11,2.57-8.45,9.12-30.01.07-.24.07-.22h107.77l.72,3.51,17.67,86.44,12.73,62.3,12.52,61.23,5.15,25.2.5,2.47h0Z" fill="#dddedf"/><path d="m288.16,358.99l-7.25,30.03-1.01,4.21-.53,2.19-32.16,133.31-19.85,82.28c-3.65-1.03-7.28-2.12-10.88-3.29-.24-.07-.49-.15-.73-.23-3.22-1.04-6.42-2.14-9.6-3.29-2.86-1.03-5.7-2.11-8.53-3.23-9.86-3.89-19.47-8.28-28.8-13.12,20.83-103.1,41.74-204.47,45.14-212.96,1.49-3.73,5.66-6.59,11.31-8.79,1.63-.64,3.39-1.22,5.24-1.75,12.13-3.46,28.32-4.73,40.46-5.18h.12c4.84-.17,9.03-.22,12.05-.22s5.02.05,5.02.05h0Z" fill="#dddedf"/><circle cx="296.15" cy="271.3" r="59.19" fill="#f6a6a9"/><path d="m279.97,199.93s-32.57,132.25,3.65,194.09l-51.02-10.84s-19.77-144.76,19.99-171.07l27.39-12.18h0Z" fill="#2f2e41"/><path d="m269.78,619.8c-2.82-.38-5.62-.79-8.41-1.25-7.95-1.29-15.81-2.9-23.55-4.79-2.61-.63-5.21-1.3-7.8-2.02l3.33-25.54,8.89-68.23,4,14.78,3.68,13.61,19.86,73.44h0Z" fill="#272223" isolation="isolate" opacity=".1"/><path d="m437.55,596.14c-2.18.97-4.37,1.91-6.58,2.82h0c-.33.14-.66.28-.99.42-.58.24-1.16.48-1.75.71-8,3.24-16.16,6.15-24.47,8.71h0c-19.74-13.97-34.95-33.43-43.73-55.97l-4.68-12.01-29.98-86.84,66.42,69.69,12.14,19.22,18.65,29.52,14.98,23.72h-.01Z" fill="#272223" isolation="isolate" opacity=".1"/><path d="m502.57,557.23c-17.34,13.5-36.14,25.2-56.14,34.82-2.49,1.2-5.01,2.36-7.54,3.5-.45.2-.89.4-1.34.59-2.18.97-4.37,1.91-6.58,2.82h0c-1.09-.42-2.17-.87-3.24-1.34-10.97-4.8-20.77-12.1-29.42-20.63-11.62-11.49-21.14-25.23-28.61-38.21-3.68-6.39-6.86-12.6-9.55-18.26l-.04-.09c-7.25-15.33-10.84-26.61-10.84-26.61l-9.65-39.63-2.65-10.87h0l-15.08-61.88-5.48-22.5,8.18-.36,22.35-.98,24.65-1.09c5.68.43,11.22,1.49,16.55,3.15,17.11,5.25,31.99,16.47,41.76,31.91,26.86,42.47,69.87,117.38,72.68,165.66h-.01Z" fill="#dddedf"/><path d="m221.73,331.37c12.97-4.67,47.3-4.69,62.7.51,2.99,1.01,4.8,4.05,4.28,7.16l-.61,3.69c1.34-.2,2.65-.58,3.89-1.15,3.67-1.68,10.9-3.96,18.2-.32,5.1,2.54,8.69,7.33,9.95,12.9,3.01,13.32-4.58,20.69-4.58,20.69l-10.11,9.49c-8.47,7.94-17.71,15.02-27.58,21.12l-.2.12,3.6-21.66c2.03,3.57,6.62,4.74,10.11,2.58,8.82-5.46,23.23-16.4,21.48-28.82-1.22-8.66-6.03-10.5-10.65-10.11-5.17.44-9.68,3.69-11.89,8.38-.53,1.12-1.4,2.04-2.48,2.64l-2.6,1.42-7.62,45.91c-.34,2.06-1.66,3.84-3.53,4.76-17.92,8.79-37.26,4.23-43.95,2.18-1.53-.47-2.84-1.48-3.66-2.86l-1.44-2.39c-.5-.82-.8-1.75-.9-2.7l-6.65-66.82c-.29-2.95,1.46-5.71,4.25-6.72h-.01Z" fill="#512da8"/><path d="m282.9,334.92c0,1.57-13.49,2.84-30.13,2.84s-30.13-1.27-30.13-2.84,13.49-2.84,30.13-2.84,30.13,1.27,30.13,2.84Z" fill="#dedfe0"/><path id="uuid-4649cc22-8d47-4d9d-b2d1-a070273bfea6-37" d="m297.47,397.64c-11.34-16.3-11.75-35.47-.92-42.83,10.83-7.36,28.79-.12,40.13,16.19,4.62,6.45,7.56,13.93,8.58,21.82l47.12,69.67-34.58,21.9-42.78-71c-7.09-3.76-13.11-9.16-17.55-15.74h0Z" fill="#f6a6a9"/><polygon points="325.36 453.99 364.3 418.15 441.29 489.84 369.69 538.78 325.36 453.99" fill="#dddedf"/><polygon points="434.49 499.78 437.55 523.29 417.15 499.78 417.15 476.07 434.49 499.78" fill="#272223" isolation="isolate" opacity=".1"/></svg>